<svg xmlns:xlink="http://www.w3.org/1999/xlink" xmlns="http://www.w3.org/2000/svg" width="17.106" height="14.149"><g data-name="noun_chat bubble_352951" fill="#FFFFFF"><g data-name="Grupo 265" fill="#FFFFFF"><g data-name="Grupo 264" fill="#FFFFFF"><path data-name="Caminho 245" d="M16.6 14.149c.3 0 .5-.283.5-.7V1.907A1.839 1.839 0 0 0 15.2.002H1.907A1.839 1.839 0 0 0 0 1.907V9.79a1.839 1.839 0 0 0 1.907 1.912h10.478a4.034 4.034 0 0 1 2.57 1.06l1.123 1.116a.759.759 0 0 0 .522.271zM15.2.572a1.284 1.284 0 0 1 1.335 1.335v11.538a.52.52 0 0 1 0 .067.618.618 0 0 1-.048-.045l-1.129-1.115a4.576 4.576 0 0 0-2.973-1.226H1.907A1.284 1.284 0 0 1 .572 9.791V1.907A1.284 1.284 0 0 1 1.907.572H15.2z" fill="#FFFFFF"></path></g></g><g data-name="Grupo 266" fill="#FFFFFF"><path data-name="Caminho 246" d="M14.94 4.07H1.988a.313.313 0 1 1 0-.626H14.94a.313.313 0 1 1 0 .626z" fill="#FFFFFF"></path></g><g data-name="Grupo 267" fill="#FFFFFF"><path data-name="Caminho 247" d="M12.133 5.618H1.988a.313.313 0 1 1 0-.626h10.145a.313.313 0 0 1 0 .626z" fill="#FFFFFF"></path></g><g data-name="Grupo 268" fill="#FFFFFF"><path data-name="Caminho 248" d="M13.789 7.166h-11.8a.313.313 0 1 1 0-.626h11.8a.313.313 0 1 1 0 .626z" fill="#FFFFFF"></path></g><g data-name="Grupo 269" fill="#FFFFFF"><path data-name="Caminho 249" d="M9.417 8.714H1.989a.313.313 0 0 1 0-.626h7.428a.313.313 0 0 1 0 .626z" fill="#FFFFFF"></path></g></g></svg>