<svg xmlns:xlink="http://www.w3.org/1999/xlink" xmlns="http://www.w3.org/2000/svg" width="18.32" height="21"><path d="M18.27 7.3A1.89 1.89 0 0 0 16.43 5h-3.77V3.5a3.5 3.5 0 0 0-7 0V5H1.89A1.89 1.89 0 0 0 .05 7.3l.63 2.87a15.92 15.92 0 0 1-.43 8.5A1.78 1.78 0 0 0 1.93 21h14.45a1.78 1.78 0 0 0 1.7-2.34 15.92 15.92 0 0 1-.44-8.5zM6.66 3.5a2.5 2.5 0 0 1 5 0V5h-5zm10 6.45a16.93 16.93 0 0 0 .46 9.02.78.78 0 0 1-.73 1.03H1.93a.78.78 0 0 1-.74-1.03 16.93 16.93 0 0 0 .47-9.02l-.64-2.87A.89.89 0 0 1 1.9 6h3.77v2.5a.5.5 0 0 0 1 0V6h5v2.5a.5.5 0 0 0 1 0V6h3.77a.89.89 0 0 1 .86 1.08z" fill="#FFFFFF"></path></svg>