<svg fill="none" xmlns="http://www.w3.org/2000/svg"><path d="M17.42 29.8l-.38.06.38-.05v-.01zM17.72 29.76l-.18.03.18-.03zM16.7 29.9l-.43.05.43-.05zM17 29.87l-.22.02.22-.02zM18.13 29.68l-.16.03.16-.03zM19.14 29.43l-.13.03.13-.03zM18.84 29.5l-.14.05.14-.05zM18.43 29.6l-.14.04.14-.04zM16.26 29.95l-.24.02.24-.02zM30 15a15 15 0 1 0-15 15h.26V18.32h-3.22v-3.76h3.22V11.8c0-3.2 1.96-4.95 4.82-4.95.97 0 1.93.05 2.89.15v3.35H21c-1.55 0-1.86.74-1.86 1.82v2.4h3.72l-.48 3.75h-3.24v11.1A15 15 0 0 0 30 15zM15.99 29.97l-.47.02c.16 0 .32 0 .47-.02z"/></svg>